<svg width="192" height="30" viewBox="0 0 192 30" fill="none" xmlns="http://www.w3.org/2000/svg">
<path id="Logo" fill-rule="evenodd" clip-rule="evenodd" d="M16.3256 21.6717C19.0468 20.9448 21.1905 19.1606 22.7597 16.3206L23.2777 16.4612C23.0014 17.6816 22.5276 18.8077 21.8605 19.8411C21.1905 20.8745 20.3839 21.7715 19.439 22.5336C18.4929 23.297 17.4444 23.8903 16.2911 24.3121C15.1377 24.7353 13.9387 24.9462 12.6942 24.9462C11.1941 24.9462 9.80033 24.6875 8.50881 24.1715C7.2173 23.6555 6.09292 22.9385 5.13568 22.0232C4.17982 21.1079 3.42424 20.0295 2.87034 18.7838C2.31644 17.541 2.04018 16.1912 2.04018 14.7361C2.04018 13.3512 2.27638 12.0015 2.74879 10.6869C3.22119 9.37231 3.89527 8.18708 4.77378 7.1312C5.23375 6.5674 5.74207 6.05141 6.29459 5.58182C6.84849 5.11223 7.56262 4.57374 8.43975 3.96215C8.06956 3.91575 7.77534 3.8806 7.5571 3.8567C7.33747 3.8342 7.11232 3.82155 6.88302 3.82155C3.97676 3.82155 1.85647 5.33578 0.519369 8.36282L0 10.3213C0.530419 7.99868 1.53877 3.9973 3.02643 2.73052C4.51409 1.46234 6.34155 0.829655 8.50881 0.829655C9.03923 0.829655 9.66082 0.864804 10.3763 0.935102C11.0905 1.0054 11.806 1.0996 12.5201 1.2163L14.8725 1.60434L16.6364 1.88554C17.1212 1.95583 17.5992 2.01488 18.0729 2.06128C18.544 2.10908 18.9432 2.13158 19.2664 2.13158C20.8563 2.13158 22.0207 1.49889 22.7597 0.230713L23.2777 0.406459C23.1617 1.90944 22.6036 3.09467 21.6008 3.96215C20.5966 4.83103 19.2664 5.26548 17.6061 5.26548C17.49 5.26548 17.3105 5.25423 17.0687 5.23033C16.9303 5.21745 16.7901 5.20411 16.6478 5.19057L16.3256 5.16003V21.6717ZM9.82243 3.96215C9.22295 4.26865 8.72706 4.58499 8.33615 4.91258C7.94386 5.24158 7.57505 5.64087 7.22835 6.11046C6.5598 7.02575 6.04043 8.08163 5.67162 9.27951C5.30281 10.476 5.1191 11.6373 5.1191 12.7649C5.1191 15.5108 6.17856 17.87 8.30024 19.8411C8.64694 19.5824 8.91768 19.342 9.11382 19.1199C9.30997 18.8963 9.46053 18.6081 9.56413 18.2566C9.66634 17.9037 9.73679 17.4524 9.77132 16.9013C9.80585 16.3501 9.82243 15.6162 9.82243 14.7009V3.96215ZM15.5645 5.05318C15.3103 5.00678 15.0976 4.96601 14.925 4.93086C14.7523 4.89571 14.5838 4.86056 14.4235 4.82541C14.2619 4.79026 14.0948 4.75511 13.9207 4.71996C13.7481 4.68481 13.5354 4.64404 13.2826 4.59624V13.4679C13.2826 14.2665 13.2467 14.9174 13.1776 15.4222C13.1085 15.9269 12.9469 16.3965 12.6942 16.831C12.44 17.2654 12.0477 17.728 11.5173 18.2215C10.9869 18.715 10.2727 19.3364 9.37351 20.0872L9.02818 20.3684C9.83486 20.9097 10.6291 21.3019 11.4137 21.548C12.1983 21.7954 13.0395 21.9177 13.9387 21.9177C14.1929 21.9177 14.4291 21.9065 14.6487 21.8826C14.8669 21.8601 15.1722 21.825 15.5645 21.7771V5.05318ZM24.419 22.6927L25.803 21.4948V5.05341C25.803 4.60912 25.7796 4.22108 25.734 3.89208C25.687 3.56449 25.6055 3.27064 25.4909 3.01195C25.3762 2.75465 25.2257 2.5072 25.0419 2.27241C24.8569 2.03902 24.6151 1.79157 24.3154 1.53287L24.5916 1.07593C25.0295 1.26433 25.4273 1.48085 25.7851 1.72689C26.1428 1.97294 26.5862 2.34271 27.1167 2.8362C27.578 2.24991 28.125 1.79157 28.7604 1.46257C29.3944 1.13498 30.1831 0.887531 31.1293 0.723033L31.3365 1.14623C30.9221 1.40493 30.581 1.65097 30.3171 1.88577C30.0519 2.12056 29.8434 2.37786 29.6942 2.66045C29.5436 2.94165 29.44 3.27064 29.382 3.64604C29.324 4.02143 29.2964 4.46853 29.2964 4.98311V11.2861L34.1047 7.30717C34.6116 7.70647 35.026 8.06358 35.3492 8.38133C35.6711 8.69767 35.9197 9.04495 36.0924 9.42034C36.2664 9.79573 36.381 10.2288 36.4391 10.7223C36.4957 11.2158 36.5247 11.8259 36.5247 12.5528V19.5588C36.5247 20.4516 36.4736 21.2431 36.37 21.9348C36.2664 22.628 36.0924 23.2565 35.8506 23.8188C35.6089 24.3826 35.3022 24.893 34.9334 25.3513C34.5646 25.8083 34.1047 26.2371 33.5508 26.6364C32.7427 27.1988 31.849 27.7274 30.8697 28.2209C29.8889 28.713 28.6858 29.229 27.2562 29.7689L27.0476 29.1348L27.4634 28.9239C28.661 28.3615 29.6251 27.8554 30.3503 27.4097C31.0768 26.964 31.6363 26.4649 32.0286 25.9137C32.4209 25.3626 32.6805 24.7116 32.8076 23.9594C32.9333 23.2101 32.9969 22.2709 32.9969 21.1433V12.6583C32.9969 12.2843 32.9844 11.9665 32.9623 11.7078C32.9402 11.4506 32.8877 11.2214 32.8076 11.0217C32.7261 10.8221 32.6101 10.6407 32.4609 10.4762C32.3104 10.3117 32.1197 10.136 31.8904 9.94758L29.2964 12.0959V21.4948L30.3682 22.7981L27.3239 25.1222L24.419 22.6927ZM44.3074 25.122C43.3612 24.5118 42.4398 24.0183 41.5392 23.643C40.6414 23.2676 39.7988 23.0103 39.0142 22.8683V22.5168C39.4756 22.2581 39.7808 21.9178 39.9314 21.496C40.0806 21.0728 40.1566 20.3572 40.1566 19.3477V13.1165C40.1566 12.249 40.0985 11.7021 39.9839 11.4799C39.8679 11.2564 39.5792 11.1453 39.1192 11.1453H39.0142L38.8416 10.7573L39.2573 10.5815C39.8789 10.3003 40.4549 10.036 40.9867 9.78856C41.5171 9.54252 42.0365 9.29085 42.5434 9.03215C43.0504 8.77486 43.5518 8.50351 44.0477 8.22232C44.5436 7.94112 45.056 7.63603 45.5864 7.30703L49.8077 12.8001L43.5463 18.1161V21.3203L43.5522 21.3233C43.8729 21.4865 44.1472 21.6261 44.3764 21.7421C44.6057 21.8602 44.8254 21.9713 45.0339 22.0767C45.2411 22.1822 45.4594 22.3003 45.69 22.4282C45.9207 22.5575 46.1984 22.7052 46.5216 22.8683L49.0107 21.1431L49.3574 21.6366L44.3074 25.122ZM47.0396 13.9966L43.5463 9.4202V16.9548L47.0396 13.9966ZM76.3704 10.4056H72.9461V18.0105C72.9461 18.7149 72.9282 19.3068 72.8937 19.7877C72.8591 20.2699 72.7956 20.6861 72.7044 21.0376C72.6119 21.3905 72.4848 21.6956 72.3232 21.9528C72.1616 22.2115 71.9654 22.4815 71.7361 22.7627C71.4806 23.0453 71.2099 23.3026 70.9225 23.5374C70.6339 23.7722 70.2941 24.0126 69.9018 24.2586C69.5095 24.5061 69.0481 24.7577 68.5191 25.0164C67.9887 25.2737 67.3422 25.5788 66.5811 25.9317L61.462 28.2206L61.3917 28.1847C61.307 28.1414 61.1578 28.0651 60.944 27.9563C60.6443 27.8031 60.3045 27.64 59.9232 27.4628C59.542 27.2871 59.1621 27.1282 58.7809 26.9876C58.4011 26.847 58.1179 26.7767 57.9342 26.7767C57.2891 26.7767 56.7932 27.2576 56.4465 28.2206L55.7904 28.0083C55.9741 26.8583 56.3609 25.9317 56.9479 25.2273C57.5364 24.523 58.2229 24.1715 59.0074 24.1715C59.2602 24.1715 59.531 24.201 59.8196 24.2586C60.107 24.3177 60.4357 24.4175 60.8059 24.5581C61.1733 24.6987 61.5946 24.8871 62.067 25.1219C62.5394 25.3567 63.1002 25.6505 63.7453 26.002C63.8834 25.9078 64.005 25.808 64.1086 25.7026C64.2122 25.5971 64.2992 25.4031 64.3683 25.1219C64.4373 24.8407 64.4884 24.4175 64.523 23.8537C64.5589 23.2913 64.5755 22.5054 64.5755 21.4959V10.4056C64.0906 10.4056 63.6762 10.4113 63.3309 10.4225C62.9842 10.4352 62.6789 10.4591 62.4137 10.4942C62.1485 10.5294 61.8999 10.5814 61.6706 10.6517C61.4399 10.722 61.1968 10.8049 60.944 10.8991C60.4136 11.11 59.9702 11.3505 59.6124 11.6204C59.2533 11.8903 58.9038 12.225 58.5571 12.6243L58.0723 12.2362C58.4646 11.3209 58.8168 10.6348 59.1276 10.1765C59.4398 9.71953 59.8252 9.31461 60.2865 8.96171C60.5628 8.77472 60.828 8.61585 61.0822 8.4865C61.3349 8.35855 61.6236 8.25311 61.9468 8.17016C62.2687 8.08861 62.6389 8.02956 63.0533 7.99441C63.4677 7.95785 63.976 7.94098 64.5755 7.94098V5.19513C65.7744 5.05453 66.7483 4.87738 67.4983 4.66649C68.247 4.45559 68.9804 4.16315 69.6946 3.78635C70.5012 3.36456 71.1643 2.91184 71.6836 2.431C72.203 1.95016 72.6575 1.38074 73.0497 0.724158C73.9255 1.38074 74.641 1.83206 75.1949 2.07951C75.7474 2.32555 76.2903 2.44928 76.8193 2.44928C77.3497 2.44928 77.8111 2.31431 78.2034 2.04436C78.5957 1.77441 78.988 1.33435 79.3802 0.724158L79.8637 0.829606C79.7477 2.16668 79.3443 3.21131 78.6537 3.9635C77.9617 4.71429 77.0735 5.08968 75.9905 5.08968C75.5292 5.08968 75.0609 5.02501 74.5885 4.89566C74.1161 4.76772 73.5691 4.56104 72.9461 4.27985V7.94098H77.3387L76.3704 10.4056ZM69.7982 4.98424C69.591 5.07703 69.4059 5.15436 69.2456 5.212C69.084 5.27105 68.9335 5.3301 68.7953 5.38915C68.6572 5.4482 68.5066 5.4946 68.3464 5.52975C68.1834 5.5649 67.9887 5.61692 67.758 5.68862V17.7631C67.758 18.8906 67.7345 19.8003 67.6889 20.492C67.642 21.1852 67.5328 21.7954 67.3602 22.3226C67.1861 22.8513 66.9278 23.3616 66.5811 23.8537C66.2358 24.3472 65.7634 24.9461 65.1639 25.6505C65.878 25.2273 66.4775 24.828 66.9623 24.4527C67.4458 24.0773 67.8961 23.6555 68.3105 23.1859C68.6102 22.833 68.8589 22.5054 69.055 22.2003C69.2498 21.8952 69.4059 21.5606 69.5219 21.1964C69.6366 20.8323 69.7111 20.4217 69.7471 19.9648C69.7816 19.5065 69.7982 18.9385 69.7982 18.2566V4.98424ZM89.0998 21.4605V22.1297V22.3406C88.4533 22.6218 87.8898 22.8749 87.4049 23.097C86.9215 23.3206 86.4891 23.5371 86.1079 23.7494C85.728 23.9603 85.3758 24.1768 85.0526 24.4003C84.7293 24.6239 84.4075 24.8643 84.0843 25.1216C83.0469 24.3005 82.0206 23.6735 81.0067 23.239C79.9915 22.8046 78.9182 22.5403 77.7897 22.4461V22.0243C77.9969 21.8837 78.164 21.7304 78.2911 21.5659C78.4168 21.4028 78.5162 21.1849 78.5853 20.915C78.6544 20.645 78.7 20.2935 78.7234 19.8591C78.7455 19.4246 78.758 18.8552 78.758 18.1508V10.1593C79.7263 9.83032 80.5965 9.44368 81.37 8.99658C82.1408 8.5523 82.8963 7.9885 83.6353 7.30802C84.5567 7.9646 85.4269 8.48622 86.246 8.87426C87.0651 9.2609 88.0154 9.58428 89.0998 9.84157V21.4605ZM82.1477 20.6858L85.7101 22.3055V11.6384L82.1477 10.0539V20.6858ZM94.219 7.30745C95.3945 7.89374 96.2136 8.82168 96.6749 10.0885L99.8229 7.20201L102.312 10.3696L99.9265 12.5531L97.885 9.98301L96.5368 11.2146V21.1084L98.1972 22.4118L99.8229 21.1084L100.272 21.6722L96.1211 25.1225C95.3834 24.3717 94.6748 23.7966 93.9939 23.3973C93.3129 22.998 92.6043 22.7168 91.8667 22.5523V22.1994C92.328 21.8719 92.6457 21.519 92.8184 21.1436C92.991 20.7682 93.078 20.1706 93.078 19.3482V12.2719C93.078 11.919 93.0656 11.6266 93.0421 11.3918C93.02 11.157 92.9786 10.9517 92.922 10.7746C92.8639 10.5988 92.7769 10.447 92.6623 10.3176C92.5463 10.1883 92.3971 10.0533 92.2134 9.91271L91.2092 10.7577L90.8293 10.2642L94.219 7.30745ZM107.881 2.73061V8.04657H110.753V9.91229H107.881V21.108C108.066 21.2261 108.221 21.3315 108.348 21.4257C108.475 21.5185 108.597 21.6071 108.711 21.6887C108.827 21.7716 108.942 21.8658 109.058 21.9713C109.173 22.0767 109.322 22.2004 109.507 22.341L110.58 21.4257L111.098 22.0233L107.432 25.122C106.326 23.9256 104.976 23.0918 103.385 22.6222V22.1653C103.614 22.0008 103.805 21.8363 103.955 21.6718C104.105 21.5073 104.221 21.3076 104.302 21.0728C104.382 20.8395 104.433 20.5456 104.457 20.1927C104.479 19.8412 104.491 19.3829 104.491 18.8205V9.91229H102.969V9.31475L107.881 2.73061ZM114.625 7.30745L114.972 7.58865C115.317 7.89374 115.593 8.15244 115.802 8.36333C116.009 8.57423 116.176 8.78653 116.303 8.99743C116.429 9.20832 116.51 9.42625 116.545 9.64839C116.58 9.87194 116.597 10.1363 116.597 10.4414V10.8631L120.886 7.30745L123.411 9.80726L125.003 8.25789L125.486 8.82168C125.117 9.17317 124.818 9.49654 124.587 9.78899C124.356 10.0828 124.184 10.3936 124.069 10.7225C123.953 11.0515 123.871 11.4213 123.826 11.8319C123.78 12.2424 123.757 12.7528 123.757 13.363V19.2779C123.757 20.3815 123.809 21.1197 123.913 21.4951C124.016 21.8719 124.229 22.0589 124.552 22.0589C124.667 22.0589 124.783 22.0364 124.898 21.9886C125.014 21.9422 125.163 21.8367 125.348 21.6722C125.394 21.6244 125.439 21.5836 125.486 21.5485C125.532 21.5133 125.579 21.4726 125.626 21.4248L126.04 22.1292L122.409 25.1225L122.062 24.7696C121.67 24.3942 121.359 24.0722 121.128 23.8023C120.897 23.5323 120.725 23.2385 120.609 22.9207C120.494 22.6044 120.424 22.2121 120.402 21.7425C120.378 21.2729 120.367 20.6627 120.367 19.9119V11.1092L118.983 9.70181L116.597 11.7081V21.3545L117.807 22.6578L114.799 25.1225L111.858 22.5523L113.208 21.2842V12.3071C113.208 11.6505 113.201 11.2146 113.19 11.0037C113.179 10.7928 113.139 10.6171 113.068 10.4751C112.93 10.2178 112.734 10.0885 112.481 10.0885C112.365 10.0885 112.249 10.1124 112.134 10.1588C112.02 10.2066 111.846 10.2994 111.615 10.4414L111.201 9.91271L114.625 7.30745ZM130.489 25.122C130.023 24.6285 129.471 24.0957 128.831 23.5192C128.192 22.9456 127.642 22.5168 127.182 22.2342V21.9178C127.411 21.825 127.602 21.7252 127.751 21.6184C127.902 21.5129 128.016 21.3611 128.098 21.1614C128.178 20.9618 128.236 20.7157 128.271 20.4219C128.305 20.128 128.323 19.747 128.323 19.2774V10.6518L127.077 9.59595L129.965 7.30703L132.854 9.70139L131.713 10.7924V21.6366L132.681 22.5168L133.718 21.6366L134.1 22.2342L130.489 25.122ZM130.363 0.265954L133.234 0.336252L130.363 4.35029L129.533 4.27999L130.363 0.265954ZM139.183 24.1715L135.552 21.4608V9.45521C136.635 9.31461 137.603 9.08544 138.457 8.7691C139.31 8.45135 140.233 7.96488 141.223 7.30689L146.032 9.70125L148.729 8.22218V11.9199C148.434 11.8496 148.184 11.7849 147.978 11.7258C147.774 11.6668 147.58 11.6091 147.398 11.5501C147.216 11.491 147.022 11.432 146.818 11.3744C146.613 11.3153 146.374 11.2394 146.101 11.1452V19.2773C146.101 19.7469 146.113 20.1223 146.135 20.4049C146.157 20.6861 146.209 20.9448 146.289 21.1796C146.367 21.413 146.488 21.666 146.648 21.936C146.805 22.2059 147.022 22.5518 147.296 22.9736C147.568 23.3743 147.789 23.7131 147.96 23.9957C148.131 24.2769 148.267 24.5173 148.37 24.717C148.473 24.9166 148.54 25.098 148.575 25.2625C148.609 25.427 148.626 25.5915 148.626 25.756C148.626 26.0611 148.568 26.3366 148.453 26.5827C148.337 26.8301 148.141 27.0762 147.865 27.3222C147.588 27.5683 147.213 27.8326 146.74 28.1152C146.268 28.3964 145.663 28.7127 144.925 29.0656L144.095 29.4523C143.38 29.1233 142.733 28.9011 142.157 28.783C141.581 28.6663 140.924 28.6073 140.186 28.6073C139.448 28.6073 138.698 28.6663 137.939 28.783C137.178 28.9011 136.382 29.0769 135.552 29.3117L135.205 28.9602L139.183 24.1715ZM138.215 26.3549C138.814 26.2368 139.327 26.1553 139.754 26.1075C140.181 26.0611 140.624 26.0372 141.085 26.0372C141.547 26.0372 141.973 26.0611 142.366 26.1075C142.757 26.1553 143.143 26.2256 143.525 26.3184C143.905 26.4126 144.297 26.5419 144.7 26.7064C145.103 26.8709 145.547 27.0706 146.032 27.3054L146.62 26.9525C145.767 26.3662 144.902 25.4621 144.026 24.2418C143.565 23.6316 143.242 23.0917 143.058 22.6221C142.873 22.1525 142.757 21.5789 142.711 20.897L138.215 26.3549ZM140.982 21.9528L142.711 19.8762V11.1452L138.871 9.70125V20.3346L140.982 21.9528ZM148.972 22.6927L150.356 21.4948V5.05341C150.356 4.60912 150.333 4.22108 150.287 3.89208C150.24 3.56449 150.159 3.27064 150.044 3.01195C149.929 2.75465 149.779 2.5072 149.595 2.27241C149.41 2.03902 149.168 1.79157 148.869 1.53287L149.145 1.07593C149.583 1.26433 149.98 1.48085 150.338 1.72689C150.696 1.97294 151.139 2.34271 151.67 2.8362C152.131 2.24991 152.678 1.79157 153.314 1.46257C153.948 1.13498 154.736 0.887531 155.682 0.723033L155.89 1.14623C155.475 1.40493 155.134 1.65097 154.87 1.88577C154.605 2.12056 154.396 2.37786 154.247 2.66045C154.097 2.94165 153.993 3.27064 153.935 3.64604C153.877 4.02143 153.849 4.46853 153.849 4.98311V11.2861L158.658 7.30717C159.165 7.70647 159.579 8.06358 159.902 8.38133C160.224 8.69767 160.473 9.04495 160.645 9.42034C160.82 9.79573 160.934 10.2288 160.992 10.7223C161.049 11.2158 161.078 11.8259 161.078 12.5528V19.5588C161.078 20.4516 161.027 21.2431 160.923 21.9348C160.82 22.628 160.645 23.2565 160.404 23.8188C160.162 24.3826 159.855 24.893 159.487 25.3513C159.118 25.8083 158.658 26.2371 158.104 26.6364C157.296 27.1988 156.402 27.7274 155.423 28.2209C154.442 28.713 153.239 29.229 151.809 29.7689L151.601 29.1348L152.016 28.9239C153.214 28.3615 154.178 27.8554 154.903 27.4097C155.63 26.964 156.189 26.4649 156.582 25.9137C156.974 25.3626 157.234 24.7116 157.361 23.9594C157.486 23.2101 157.55 22.2709 157.55 21.1433V12.6583C157.55 12.2843 157.538 11.9665 157.515 11.7078C157.493 11.4506 157.441 11.2214 157.361 11.0217C157.279 10.8221 157.163 10.6407 157.014 10.4762C156.863 10.3117 156.673 10.136 156.444 9.94758L153.849 12.0959V21.4948L154.921 22.7981L151.877 25.1222L148.972 22.6927ZM168.307 2.73061V8.04657H171.178V9.91229H168.307V21.108C168.492 21.2261 168.646 21.3315 168.773 21.4257C168.901 21.5185 169.022 21.6071 169.137 21.6887C169.253 21.7716 169.367 21.8658 169.482 21.9713C169.598 22.0767 169.747 22.2004 169.932 22.341L171.006 21.4257L171.524 22.0233L167.858 25.122C166.751 23.9256 165.402 23.0918 163.81 22.6222V22.1653C164.04 22.0008 164.23 21.8363 164.381 21.6718C164.53 21.5073 164.646 21.3076 164.728 21.0728C164.808 20.8395 164.859 20.5456 164.882 20.1927C164.904 19.8412 164.917 19.3829 164.917 18.8205V9.91229H163.395V9.31475L168.307 2.73061ZM176.543 25.122C175.927 24.4415 175.298 23.9073 174.66 23.5192C174.02 23.1326 173.263 22.8219 172.388 22.5871V22.0936C172.618 21.953 172.809 21.818 172.96 21.6887C173.109 21.5607 173.225 21.4018 173.305 21.2134C173.386 21.0265 173.443 20.7973 173.477 20.5273C173.512 20.2574 173.53 19.9242 173.53 19.5235V5.72251C173.53 5.13622 173.507 4.6371 173.461 4.22656C173.414 3.81602 173.334 3.46453 173.218 3.17068C173.103 2.87683 172.936 2.63079 172.716 2.43114C172.497 2.23149 172.215 2.02622 171.87 1.81533L172.042 1.32183C172.366 1.43994 172.642 1.55101 172.872 1.65645C173.103 1.7619 173.309 1.87438 173.493 1.99107C173.678 2.10918 173.866 2.24415 174.06 2.39599C174.254 2.54924 174.476 2.74327 174.728 2.97666C175.183 2.43677 175.744 1.97983 176.409 1.60443C177.072 1.22904 177.784 0.935194 178.545 0.722893L178.718 1.32183C178.349 1.58053 178.048 1.8322 177.819 2.07965C177.588 2.32569 177.403 2.60689 177.265 2.92464C177.127 3.24098 177.034 3.61075 176.989 4.03254C176.942 4.45573 176.92 4.98438 176.92 5.61706V21.1783L178.615 22.3762L179.341 21.8124L179.825 22.3762L176.543 25.122ZM184.512 8.85683C184.2 8.34084 183.617 7.82344 182.765 7.30745L179.271 10.2642L179.686 10.7577L179.894 10.6171C180.24 10.3345 180.517 10.1939 180.723 10.1939C180.954 10.1939 181.15 10.2994 181.311 10.5117C181.428 10.6283 181.497 10.8097 181.52 11.0572C181.542 11.3032 181.555 11.7672 181.555 12.4477V20.2283C181.555 20.7921 181.542 21.2617 181.52 21.6371C181.497 22.0125 181.439 22.34 181.346 22.6226C181.253 22.9038 181.122 23.185 180.95 23.4676C180.776 23.7488 180.55 24.0778 180.274 24.4532C179.882 24.9692 179.622 25.398 179.496 25.7383C179.369 26.0785 179.306 26.4834 179.306 26.953C179.306 27.8444 179.622 28.5375 180.258 29.0296C180.892 29.5231 181.762 29.7692 182.868 29.7692C183.422 29.7692 183.953 29.7214 184.459 29.6286C184.966 29.5344 185.404 29.405 185.774 29.2405C186.142 29.076 186.438 28.889 186.656 28.6781C186.875 28.4672 186.984 28.2437 186.984 28.0089C186.984 27.8205 186.915 27.6574 186.777 27.5154C186.639 27.3748 186.478 27.3045 186.292 27.3045C186.085 27.3045 185.9 27.3509 185.74 27.4451C185.578 27.5393 185.335 27.7502 185.013 28.0792C184.39 28.7133 183.595 29.0296 182.626 29.0296C181.912 29.0296 181.324 28.8412 180.863 28.4672C180.401 28.0904 180.171 27.6096 180.171 27.0233C180.171 26.4117 180.447 25.7903 181.001 25.1576C181.231 24.9228 181.52 24.6824 181.865 24.4349C182.211 24.1889 182.81 23.8191 183.664 23.3256C184.609 22.7871 185.475 22.2402 186.262 21.6891C187.051 21.1379 187.764 20.6037 188.403 20.0877C189.568 19.1485 190.457 18.087 191.075 16.9018C191.692 15.7165 192 14.4666 192 13.1521C192 12.0484 191.804 10.9981 191.412 10.0013C191.019 9.00305 190.467 8.14119 189.751 7.4129L184.979 11.2512V10.9686C184.979 10.0772 184.823 9.37282 184.512 8.85683ZM186.435 20.1931C185.989 20.733 185.493 21.2026 184.944 21.6005V12.1665L187.275 10.2642C188.164 11.5324 188.61 12.9398 188.61 14.4891C188.61 15.1471 188.525 15.8164 188.353 16.4969C188.182 17.1773 187.931 17.8283 187.599 18.4497C187.268 19.0726 186.88 19.6532 186.435 20.1931Z" fill="black" fill-opacity="0.87"/>
</svg>
