<svg width="19" height="23" viewBox="0 0 19 23" fill="none" xmlns="http://www.w3.org/2000/svg">
<path id="Mini Logo" fill-rule="evenodd" clip-rule="evenodd" d="M16.2429 8.24618H13.5403V14.3309C13.5403 14.8944 13.5261 15.368 13.4989 15.7527C13.4716 16.1386 13.4215 16.4716 13.3495 16.7528C13.2765 17.0352 13.1762 17.2793 13.0486 17.4851C12.921 17.6921 12.7662 17.9081 12.5853 18.1331C12.3836 18.3592 12.1699 18.565 11.9431 18.7529C11.7153 18.9408 11.4471 19.1331 11.1375 19.33C10.8279 19.528 10.4637 19.7293 10.0462 19.9363C9.62755 20.1422 9.11734 20.3863 8.51664 20.6686L4.47636 22.5L4.42089 22.4713C4.35403 22.4366 4.23624 22.3756 4.06753 22.2885C3.83096 22.1659 3.56277 22.0354 3.26188 21.8937C2.96098 21.7531 2.66118 21.6259 2.36028 21.5134C2.06048 21.401 1.83699 21.3447 1.69199 21.3447C1.18287 21.3447 0.791486 21.7294 0.517844 22.5L0 22.3301C0.144997 21.41 0.450254 20.6686 0.913589 20.1051C1.37801 19.5415 1.91984 19.2602 2.53908 19.2602C2.73858 19.2602 2.95226 19.2839 3.18011 19.33C3.40688 19.3772 3.66634 19.4571 3.95852 19.5696C4.24851 19.6821 4.58102 19.8328 4.95387 20.0207C5.32672 20.2085 5.76934 20.4437 6.27846 20.7249C6.38748 20.6495 6.48342 20.5696 6.56518 20.4853C6.64695 20.4009 6.71563 20.2457 6.77014 20.0207C6.82465 19.7957 6.86499 19.4571 6.89224 19.006C6.92059 18.556 6.93367 17.9272 6.93367 17.1195V8.24618C6.55101 8.24618 6.22395 8.25068 5.9514 8.25968C5.67776 8.2698 5.43683 8.28892 5.22751 8.31705C5.01819 8.34517 4.82195 8.38679 4.64098 8.44304C4.45892 8.49928 4.26704 8.56565 4.06753 8.64102C3.6489 8.80976 3.29894 9.00212 3.01658 9.21811C2.73313 9.43409 2.45731 9.70182 2.18367 10.0213L1.80101 9.71082C2.11063 8.9785 2.38863 8.42954 2.63392 8.06282C2.88031 7.69722 3.18448 7.37324 3.5486 7.09089C3.76664 6.94127 3.97596 6.81416 4.17656 6.71067C4.37606 6.6083 4.60391 6.52393 4.85902 6.45756C5.11304 6.39231 5.40521 6.34507 5.73227 6.31695C6.05933 6.2877 6.46052 6.2742 6.93367 6.2742V4.07724C7.87996 3.96474 8.64855 3.823 9.24054 3.65427C9.83142 3.48553 10.4103 3.25155 10.974 2.95007C11.6106 2.61259 12.1339 2.25037 12.5438 1.86565C12.9538 1.48093 13.3124 1.02534 13.622 0.5C14.3132 1.02534 14.878 1.38643 15.3151 1.58442C15.7512 1.78128 16.1797 1.88027 16.5972 1.88027C17.0158 1.88027 17.38 1.77228 17.6896 1.5563C17.9992 1.34031 18.3088 0.988214 18.6184 0.5L19 0.584369C18.9084 1.65416 18.5901 2.48998 18.045 3.09181C17.4988 3.69251 16.7978 3.99287 15.9431 3.99287C15.579 3.99287 15.2094 3.94112 14.8365 3.83763C14.4637 3.73526 14.032 3.5699 13.5403 3.34491V6.2742H17.0071L16.2429 8.24618ZM11.0557 3.9085C10.8922 3.98274 10.7461 4.04461 10.6196 4.09073C10.4921 4.13798 10.3733 4.18523 10.2642 4.23247C10.1552 4.27972 10.0364 4.31684 9.90992 4.34497C9.78127 4.37309 9.62755 4.41471 9.44549 4.47208V14.1329C9.44549 15.0351 9.42696 15.7629 9.39098 16.3163C9.35391 16.8709 9.26779 17.3591 9.13151 17.781C8.99415 18.2039 8.79028 18.6123 8.51664 19.006C8.24409 19.4009 7.87124 19.8801 7.3981 20.4437C7.96173 20.1051 8.43487 19.7856 8.81753 19.4852C9.1991 19.1849 9.55451 18.8474 9.88157 18.4717C10.1181 18.1893 10.3144 17.9272 10.4692 17.6831C10.6229 17.439 10.7461 17.1713 10.8377 16.8799C10.9282 16.5886 10.987 16.2601 11.0154 15.8945C11.0426 15.5278 11.0557 15.0733 11.0557 14.5277V3.9085Z" fill="black" fill-opacity="0.87"/>
</svg>
