<svg width="25" height="25" viewBox="0 0 25 25" fill="none" xmlns="http://www.w3.org/2000/svg">
<g id="Icon" clip-path="url(#clip0_235_943)">
<path id="Vector" d="M16.1667 14.335H15.3767L15.0967 14.065C16.0767 12.925 16.6667 11.445 16.6667 9.83496C16.6667 6.24496 13.7567 3.33496 10.1667 3.33496C6.57669 3.33496 3.66669 6.24496 3.66669 9.83496C3.66669 13.425 6.57669 16.335 10.1667 16.335C11.7767 16.335 13.2567 15.745 14.3967 14.765L14.6667 15.045V15.835L19.6667 20.825L21.1567 19.335L16.1667 14.335ZM10.1667 14.335C7.67669 14.335 5.66669 12.325 5.66669 9.83496C5.66669 7.34496 7.67669 5.33496 10.1667 5.33496C12.6567 5.33496 14.6667 7.34496 14.6667 9.83496C14.6667 12.325 12.6567 14.335 10.1667 14.335Z" fill="black" fill-opacity="0.87"/>
</g>
<defs>
<clipPath id="clip0_235_943">
<rect width="24" height="24" fill="white" transform="translate(0.666687 0.334961)"/>
</clipPath>
</defs>
</svg>
